# xmcd
#
# Track frame offsets: 
#        150
#        10780
#        24047
#        31797
#        42560
#        53180
#        72000
#        93425
#        111315
#        116252
#        128462
#        142127
#        153347
#        165922
#        179402
#
# Disc length: 2957 seconds
#
# Revision: 5
# Processed by: cddbd v1.5.2PL0 Copyright (c) Steve Scherf et al.
# Submitted via: ExactAudioCopyFreeDBPlugin 1.0
#
DISCID=b40b8b0f
DTITLE=Al Green - Anthology [The Right Stuff box set]
DYEAR=1997
DGENRE=Soul
TTITLE0=Back Up Train
TTITLE1=Hot Wire
TTITLE2=Stop and Check Myself
TTITLE3=I Want to Hold Your Hand
TTITLE4=Tomorrow's Dream
TTITLE5=I'm a Ram
TTITLE6=I Can't Get Next to You (live)
TTITLE7=Light My Fire
TTITLE8=Intro to "Tired of Being Alone"
TTITLE9=Tired of Being Alone
TTITLE10=Drving Wheel
TTITLE11=Listen (take 2)
TTITLE12=True Love
TTITLE13=Guilty
TTITLE14=We've Only Just Begun - Let's Stay Together (live)
EXTD=
EXTT0=
EXTT1=
EXTT2=
EXTT3=
EXTT4=
EXTT5=
EXTT6=
EXTT7=
EXTT8=
EXTT9=
EXTT10=
EXTT11=
EXTT12=
EXTT13=
EXTT14=
PLAYORDER=
